<?xml version="1.0" standalone="no"?>
<!DOCTYPE svg PUBLIC "-//W3C//DTD SVG 1.1//EN" "http://www.w3.org/Graphics/SVG/1.1/DTD/svg11.dtd" >
<!--
2013-9-30: Created.
-->
<svg>
<metadata>
Created by iconfont
</metadata>
<defs>

<font id="iconfont" horiz-adv-x="1024" >
  <font-face
    font-family="iconfont"
    font-weight="500"
    font-stretch="normal"
    units-per-em="1024"
    ascent="896"
    descent="-128"
  />
    <missing-glyph />
    
    <glyph glyph-name="personnel" unicode="&#58968;" d="M635.4 397.964c46.461 36.483 76.441 92.994 76.441 156.506 0 109.776-89.305 199.085-199.092 199.085-109.772 0-199.075-89.303-199.075-199.085 0-63.513 30.004-120.025 76.442-156.506-122.36-48.904-209.164-168.452-209.164-308.043l0-98.289 663.614 0 0 98.289c-0.001 139.629-86.783 259.139-209.166 308.043l0 0 0 0zM512.754 687.196c73.198 0 132.72-59.528 132.72-132.725 0-73.202-59.522-132.729-132.72-132.729-73.191 0-132.718 59.527-132.718 132.729 0 73.198 59.527 132.725 132.718 132.725l0 0 0 0zM778.202 56.736l-530.891 0 0 33.186c0 146.366 119.08 265.46 265.474 265.46 146.365 0 265.416-119.094 265.416-265.46l0-33.186 0.001 0zM290.636 386.428c0.91 2.005 0.91 4.142 1.361 6.22 0.325 1.259 0.682 2.462 0.849 3.793 0.254 2.62 0.096 5.112-0.263 7.672-0.128 1.366 0.192 2.662-0.128 4.023-0.197 0.776-0.747 1.329-0.975 2.108-0.513 1.487-1.228 2.818-1.94 4.208-1.365 2.854-2.854 5.444-4.895 7.744-0.294 0.324-0.65 0.554-0.97 0.878-3.016 3.138-6.484 5.536-10.434 7.256-35.905 16.006-59.106 51.651-59.106 90.923 0 46.208 31.3 86.003 76.147 96.787 17.823 4.312 28.776 22.236 24.5 40.059-4.346 17.818-22.332 28.638-40.058 24.495-74.751-18.021-126.955-84.383-126.955-161.343 0-41.992 15.98-81.362 43.13-111.3-86.354-44.75-142.671-134.259-142.671-235.527l0-51.326c0-18.339 14.842-33.177 33.178-33.177 18.342 0 33.185 14.838 33.185 33.177l0 51.326c0 91.772 61.695 170.517 150.221 192.82 11.013 1.552 21.032 8.26 25.825 19.184l0 0 0 0zM834.488 409.951c27.152 29.938 43.122 69.308 43.122 111.306 0 74.948-50.484 140.858-122.771 160.266-17.66 4.733-35.87-5.738-40.668-23.429-4.76-17.722 5.739-35.901 23.43-40.668 43.352-11.629 73.652-51.194 73.652-96.174 0-39.266-23.164-74.847-59.04-90.892-4.011-1.751-7.549-4.178-10.591-7.353-0.265-0.294-0.583-0.487-0.846-0.782-2.073-2.295-3.561-4.957-4.958-7.841-0.674-1.391-1.422-2.691-1.908-4.142-0.226-0.747-0.777-1.331-0.971-2.108-0.323-1.361 0-2.657-0.13-4.017-0.357-2.559-0.519-5.057-0.262-7.682 0.162-1.325 0.519-2.529 0.844-3.788 0.453-2.077 0.453-4.215 1.361-6.225 4.798-10.918 14.811-17.631 25.825-19.178 88.526-22.303 150.22-101.048 150.22-192.82l0-51.326c0-18.339 14.843-33.177 33.186-33.177 18.336 0 33.178 14.838 33.178 33.177l0 51.326c-0.004 101.268-56.318 190.777-142.672 235.527l0 0 0 0zM834.488 409.951z"  horiz-adv-x="1024" />

    
    <glyph glyph-name="more" unicode="&#58935;" d="M147.012 465.109c-44.791 0-81.108-36.304-81.108-81.109 0-44.779 36.316-81.108 81.108-81.108 44.792 0 81.109 36.329 81.109 81.108 0 44.805-36.316 81.109-81.109 81.109zM511.999 465.109c-44.791 0-81.108-36.304-81.108-81.109 0-44.779 36.316-81.108 81.108-81.108 44.792 0 81.109 36.329 81.109 81.108 0 44.805-36.317 81.109-81.109 81.109zM876.987 465.109c-44.791 0-81.108-36.304-81.108-81.109 0-44.779 36.316-81.108 81.108-81.108s81.108 36.329 81.108 81.108c-0.001 44.805-36.317 81.109-81.108 81.109z"  horiz-adv-x="1024" />

    
    <glyph glyph-name="trasho" unicode="&#59455;" d="M402.288 475.424l0-329.152q0-8-5.152-13.152t-13.152-5.152l-36.576 0q-8 0-13.152 5.152t-5.152 13.152l0 329.152q0 8 5.152 13.152t13.152 5.152l36.576 0q8 0 13.152-5.152t5.152-13.152zM548.56 475.424l0-329.152q0-8-5.152-13.152t-13.152-5.152l-36.576 0q-8 0-13.152 5.152t-5.152 13.152l0 329.152q0 8 5.152 13.152t13.152 5.152l36.576 0q8 0 13.152-5.152t5.152-13.152zM694.864 475.424l0-329.152q0-8-5.152-13.152t-13.152-5.152l-36.576 0q-8 0-13.152 5.152t-5.152 13.152l0 329.152q0 8 5.152 13.152t13.152 5.152l36.576 0q8 0 13.152-5.152t5.152-13.152zM767.984 61.728l0 541.728-512 0 0-541.728q0-12.576 4-23.136t8.288-15.424 6.016-4.864l475.424 0q1.728 0 6.016 4.864t8.288 15.424 4 23.136zM383.984 676.576l256 0-27.424 66.848q-4 5.152-9.728 6.272l-181.152 0q-5.728-1.152-9.728-6.272zM914.288 658.272l0-36.576q0-8-5.152-13.152t-13.152-5.152l-54.848 0 0-541.728q0-47.424-26.848-82.016t-64.576-34.56l-475.424 0q-37.728 0-64.576 33.44t-26.848 80.864l0 544-54.848 0q-8 0-13.152 5.152t-5.152 13.152l0 36.576q0 8 5.152 13.152t13.152 5.152l176.576 0 40 95.424q8.576 21.152 30.848 36t45.152 14.848l182.848 0q22.848 0 45.152-14.848t30.848-36l40-95.424 176.576 0q8 0 13.152-5.152t5.152-13.152z"  horiz-adv-x="1024" />

    
    <glyph glyph-name="zhiding" unicode="&#59039;" d="M557.654996-85.669904c-6.499999-59.041994-88.986991-53.776995-92.179991 0-0.083 40.896996-0.083 641.390937-0.083 641.390937l-283.839972-273.963973c-44.472996-38.308996-97.43499 22.922998-64.344994 63.215994 125.709988 121.895988 351.289966 340.004967 356.507965 345.049966 20.810998 22.608998 53.572995 23.779998 75.721993 0 41.406996-40.037996 348.700966-336.328967 358.028965-346.989966 31.166997-38.741996-19.223998-96.073991-62.242994-63.773994C834.109969 288.689059 557.739996 555.732033 557.739996 555.732033M116.396039 892.668l786.487923 0 0-89.285991L116.396039 803.382009 116.396039 892.668z"  horiz-adv-x="1024" />

    
    <glyph glyph-name="Reset" unicode="&#58900;" d="M808 293.1c-23.6-164.2-181.8-285.5-358.7-248.3C336.9 68.4 245.6 159.2 222 271.6c-40.3 192 92 361.8 290.4 361.8v-99.2l248 148.8-248 148.8v-99.2c-248 0-438-222.4-388.6-476.5 30.1-154.7 155-279.4 309.7-309.5C668-99 875.6 62.1 906.2 279.9c4.2 29.6-19.7 55.8-49.5 55.8h0.1c-24.7 0-45.3-18.2-48.8-42.6z"  horiz-adv-x="1024" />

    
    <glyph glyph-name="quxiao" unicode="&#58895;" d="M512-128C229.229714-128 0 101.229714 0 384S229.229714 896 512 896s512-229.229714 512-512-229.229714-512-512-512z m0 950.857143C283.087238 822.857143 73.142857 612.912762 73.142857 384s209.944381-438.857143 438.857143-438.857143 438.857143 209.944381 438.857143 438.857143S740.912762 822.857143 512 822.857143z m229.449143-671.963429a48.713143 48.713143 0 0 0-68.949333 0l-155.160381 155.136-155.160381-155.136a48.737524 48.737524 0 1 0-68.973715 68.949334l155.160381 155.160381-155.160381 155.160381a48.761905 48.761905 0 0 0 68.973715 68.949333l155.160381-155.160381 155.160381 155.160381a48.761905 48.761905 0 1 0 68.949333-68.949333l-155.160381-155.160381 155.160381-155.160381a48.761905 48.761905 0 0 0 0-68.949334z"  horiz-adv-x="1024" />

    
    <glyph glyph-name="edit" unicode="&#59077;" d="M172.4 120.6l0.7-0.7c6.7-6.4 16.2-9.7 26-8l229.5 40.5c6.3 1.1 11.8 4.2 16 8.4l0.1-0.1L857 573.3c35.1 35.1 35.1 92.2 0 127.3L752.4 805.3c-17 17-39.6 26.3-63.6 26.3s-46.7-9.3-63.6-26.3L212.8 392.7l0.1-0.1c-4.2-4.2-7.3-9.7-8.4-16L164 146.9c-1.6-9.9 1.8-19.6 8.4-26.3z m377.7 524.8l147.1-147.2-288-288.3-178.6-31.5 31.5 178.7 288 288.3z m117.4 117.5c5.6 5.6 13.1 8.7 21.2 8.7s15.6-3.1 21.2-8.7l104.7-104.7c11.7-11.7 11.7-30.8 0-42.5l-74.9-75-147.1 147.2 74.9 75zM929-4.4H93c-16.5 0-30-13.5-30-30s13.5-30 30-30h836c16.5 0 30 13.5 30 30s-13.5 30-30 30z"  horiz-adv-x="1024" />

    
    <glyph glyph-name="lurenkujiansuo-guijifenxi" unicode="&#58986;" d="M512 775.529412a178.959059 178.959059 0 0 0 126.494118-305.453177L512 343.582118l-126.494118 126.494117A178.959059 178.959059 0 0 0 512 775.529412m0 120.470588a299.429647 299.429647 0 0 1-211.787294-511.096471L512 173.176471l211.666824 211.727058A299.429647 299.429647 0 0 1 512 896z m0-181.790118a120.470588 120.470588 0 1 1 120.470588-120.470588 120.470588 120.470588 0 0 1-120.470588 120.470588zM783.058824-128H752.941176a60.235294 60.235294 0 0 0 0 120.470588h30.117648a30.117647 30.117647 0 0 1 0 60.235294h-542.117648a150.588235 150.588235 0 0 0 0 301.176471H271.058824a60.235294 60.235294 0 0 0 0-120.470588h-30.117648a30.117647 30.117647 0 0 1 0-60.235294h542.117648a150.588235 150.588235 0 0 0 0-301.176471z"  horiz-adv-x="1024" />

    
    <glyph glyph-name="lurenkujiansuo-pincifenxi" unicode="&#58987;" d="M512 896a512 512 0 1 1 512-512 512.576 512.576 0 0 1-512 512z m0-128a384.384 384.384 0 0 0 384-384c0-12.032-0.704-23.808-1.856-35.584h-98.56l-204.352 375.04-96-342.592-132.736 240.128-136.256-272.576h-96A273.856 273.856 0 0 0 128 384a384.384 384.384 0 0 0 384 384z m0-768a384 384 0 0 0-346.88 220.48h140.032l62.848 125.632 165.888-300.288L629.376 385.92l90.24-165.44h139.328A384.32 384.32 0 0 0 512 0z"  horiz-adv-x="1024" />

    
    <glyph glyph-name="lurenkujiansuo-daochu" unicode="&#58988;" d="M872.642563 598.03982a328.576243 328.576243 0 0 1-654.293526 0 236.068451 236.068451 0 0 1 23.960812-471.388126 66.641007 66.641007 0 1 1 0 133.282014 102.990648 102.990648 0 1 0 0 205.981296 102.650295 102.650295 0 0 0 29.270309-4.901075 69.295756 69.295756 0 0 1 65.075386 14.839366 65.756091 65.756091 0 0 1 20.761499 62.216425 181.952413 181.952413 0 0 0-3.743877 36.894205 191.890704 191.890704 0 0 0 383.645268 0 183.381893 183.381893 0 0 0-3.743877-36.894205 65.756091 65.756091 0 0 1 20.761499-62.216425 69.499968 69.499968 0 0 1 65.075386-14.839366 103.126789 103.126789 0 0 0 29.33838 4.901075 102.990648 102.990648 0 1 0 0-205.981296 66.641007 66.641007 0 1 1 0-133.282014 236.068451 236.068451 0 0 1 23.892741 471.388126z m-260.641897-449.265218l-7.487753-9.80215V451.552131a68.070488 68.070488 0 0 1-136.140975 0v-312.579679l-7.487754 9.80215a68.955404 68.955404 0 0 1-95.298682 13.614098 65.68802 65.68802 0 0 1-13.614098-93.324639l129.946561-169.631655c0.884916-1.157198 2.314397-1.565621 3.199313-2.654749a67.525924 67.525924 0 0 1 15.656212-12.729181 66.300655 66.300655 0 0 1 6.807049-4.696863 65.075386 65.075386 0 0 1 57.111139 0 60.718875 60.718875 0 0 1 6.807048 4.696863 65.824161 65.824161 0 0 1 15.588142 12.729181c0.952987 1.089128 2.382467 1.497551 3.267383 2.654749l129.946561 169.631655a65.68802 65.68802 0 0 1-13.614097 93.324639 69.091545 69.091545 0 0 1-94.686049-13.88638z"  horiz-adv-x="1091" />

    
    <glyph glyph-name="tupianxianshi" unicode="&#58989;" d="M409.6 418.133333H68.266667a68.266667 68.266667 0 0 0-68.266667 68.266667V827.733333a68.266667 68.266667 0 0 0 68.266667 68.266667h341.333333a68.266667 68.266667 0 0 0 68.266667-68.266667v-341.333333a68.266667 68.266667 0 0 0-68.266667-68.266667zM136.533333 554.666667h204.8V759.466667H136.533333v-204.8z m819.2-136.533334H614.4a68.266667 68.266667 0 0 0-68.266667 68.266667V827.733333a68.266667 68.266667 0 0 0 68.266667 68.266667h341.333333a68.266667 68.266667 0 0 0 68.266667-68.266667v-341.333333a68.266667 68.266667 0 0 0-68.266667-68.266667z m-273.066666 136.533334h204.8V759.466667h-204.8v-204.8zM409.6-128H68.266667a68.266667 68.266667 0 0 0-68.266667 68.266667V281.6a68.266667 68.266667 0 0 0 68.266667 68.266667h341.333333a68.266667 68.266667 0 0 0 68.266667-68.266667v-341.333333a68.266667 68.266667 0 0 0-68.266667-68.266667z m-273.066667 136.533333h204.8v204.8H136.533333v-204.8z m819.2-136.533333H614.4a68.266667 68.266667 0 0 0-68.266667 68.266667V281.6a68.266667 68.266667 0 0 0 68.266667 68.266667h341.333333a68.266667 68.266667 0 0 0 68.266667-68.266667v-341.333333a68.266667 68.266667 0 0 0-68.266667-68.266667z m-273.066666 136.533333h204.8v204.8h-204.8v-204.8z"  horiz-adv-x="1024" />

    
    <glyph glyph-name="daohanglan-gengduodaohang" unicode="&#58990;" d="M512 896a512 512 0 1 0-512-512 512 512 0 0 0 512 512z m1792 0a512 512 0 1 0-512-512 512 512 0 0 0 512 512z m1792 0a512 512 0 1 0-512-512 512 512 0 0 0 512 512z"  horiz-adv-x="4608" />

    
    <glyph glyph-name="liebiaoxianshi" unicode="&#58991;" d="M73.142857 896h950.857143a73.142857 73.142857 0 0 0 0-146.285714H73.142857a73.142857 73.142857 0 0 0 0 146.285714z m0-438.857143h950.857143a73.142857 73.142857 0 0 0 0-146.285714H73.142857a73.142857 73.142857 0 0 0 0 146.285714z m0-438.857143h950.857143a73.142857 73.142857 0 0 0 0-146.285714H73.142857a73.142857 73.142857 0 0 0 0 146.285714z"  horiz-adv-x="1097" />

    
    <glyph glyph-name="jiansuotiaojian-shijianxuanze-shangyinian" unicode="&#58992;" d="M0 384l640 512v-1024z m512 0l640 512v-1024z"  horiz-adv-x="1152" />

    
    <glyph glyph-name="jiansuotiaojian-shijianxuanze-shangyiyue" unicode="&#58993;" d="M192 384l640 512v-1024z"  horiz-adv-x="1024" />

    
    <glyph glyph-name="jiansuotiaojian-shijianxuanze-xiayinian" unicode="&#58994;" d="M1152 384L512-128V896zM640 384L0-128V896z"  horiz-adv-x="1152" />

    
    <glyph glyph-name="fanye-xiayiye" unicode="&#58995;" d="M297.44431-128a83.738318 83.738318 0 0 1 59.813084 25.121495l428.090788 427.236315a85.447263 85.447263 0 0 1 0 120.907878l-428.090788 427.236315A85.447263 85.447263 0 0 1 236.776753 751.594126l367.423231-367.423231-367.423231-367.423231a85.447263 85.447263 0 0 1 60.667557-144.747664z"  horiz-adv-x="1024" />

    
    <glyph glyph-name="ziyuanjiansuo-lurenkujiansuotiaozhengban" unicode="&#58996;" d="M297.44431-128a83.738318 83.738318 0 0 1 59.813084 25.121495l428.090788 427.236315a85.447263 85.447263 0 0 1 0 120.907878l-428.090788 427.236315A85.447263 85.447263 0 0 1 236.776753 751.594126l367.423231-367.423231-367.423231-367.423231a85.447263 85.447263 0 0 1 60.667557-144.747664z"  horiz-adv-x="1024" />

    
    <glyph glyph-name="lurenkujiansuo-shoucang" unicode="&#58997;" d="M240.388888-127.99943a56.366418 56.366418 0 0 0-55.796485 65.827313l51.806951 300.411922L17.088962 450.938969a56.252432 56.252432 0 0 0 31.34634 96.147773l303.090609 43.827882 135.587167 273.568056a56.651385 56.651385 0 0 0 50.781071 31.403333 56.993345 56.993345 0 0 0 50.78107-31.403333l135.530175-273.568056 303.090609-43.827882a56.252432 56.252432 0 0 0 31.346339-96.147773l-219.253398-212.699164 51.806951-300.411922a56.651385 56.651385 0 0 0-82.241397-59.387065l-271.060349 141.799442-271.174336-141.799442a56.537398 56.537398 0 0 0-26.330925-6.440248z m297.505261 268.267675a57.392298 57.392298 0 0 0 26.330925-6.440248l195.886127-102.588021-37.387634 217.258631a56.195438 56.195438 0 0 0 16.243103 49.869177l158.555486 153.882032-219.139412 31.688299a56.993345 56.993345 0 0 0-42.631022 30.8334L537.894149 712.253456l-98.028554-197.481941a56.480405 56.480405 0 0 0-42.574028-30.8334l-219.025425-31.688299 158.498492-153.882032a56.024458 56.024458 0 0 0 16.243104-49.869177l-37.387635-217.087651 195.886127 102.588021a57.449292 57.449292 0 0 0 26.444912 6.212275z"  horiz-adv-x="1077" />

    
    <glyph glyph-name="lurenkujiansuo-shenfenhecha" unicode="&#58998;" d="M595.706641 191.912224a383.894669 383.894669 0 1 1-423.563784 0A383.894669 383.894669 0 0 1 0.03008-128h127.96489a255.929779 255.929779 0 0 0 511.859558 0h127.96489a383.894669 383.894669 0 0 1-172.112777 319.912224zM127.99497 511.824448a255.929779 255.929779 0 1 0 255.929779-255.929779 255.929779 255.929779 0 0 0-255.929779 255.929779z m1151.684006 127.96489h-383.894669V767.754227h383.894669v-127.964889z m0-767.789338h-383.894669v127.96489h383.894669v-127.96489z m0 383.894669h-383.894669V383.859559h383.894669v-127.96489z"  horiz-adv-x="1280" />

    
    <glyph glyph-name="lurenkujiansuo-dingwei" unicode="&#58999;" d="M512-127.438541l-306.658957 299.51311a416.807098 416.807098 0 0 0 0 599.128302 441.000897 441.000897 0 0 0 613.215831 0 416.807098 416.807098 0 0 0 0-599.128302z m0 922.528961a333.149636 333.149636 0 0 1-234.128601-94.733526 318.194397 318.194397 0 0 1 0-457.436348l234.128601-228.667132 234.026518 228.667132a318.55169 318.55169 0 0 1 0 457.436348A332.945469 332.945469 0 0 1 512 795.09042z m0-526.189613a200.441033 200.441033 0 1 0 205.085834 200.389992 202.993121 202.993121 0 0 0-205.392085-200.389992z m0 300.584987a100.246037 100.246037 0 1 1 102.542917-100.194995 101.47104 101.47104 0 0 1-102.849168 100.194995z"  horiz-adv-x="1024" />

    
    <glyph glyph-name="lurenkujiansuo-jiansuo" unicode="&#59000;" d="M445.383503 663.669373a219.084757 219.084757 0 0 1-92.376697-378.992377 223.073016 223.073016 0 0 1-64.135513-94.316932 53.895389 53.895389 0 0 1 51.254515-70.60296 54.434343 54.434343 0 0 1 52.494109 34.708631 109.946594 109.946594 0 0 0 208.629052 0 54.380448 54.380448 0 0 1 52.440214-34.708631 53.895389 53.895389 0 0 1 51.254515 70.60296 222.587958 222.587958 0 0 1-64.135513 94.316932 219.300339 219.300339 0 0 1-195.424682 378.992377z m51.577888-324.01908a110.000489 110.000489 0 1 0 109.892699 110.000489 110.054385 110.054385 0 0 0-109.892699-110.000489z m510.874395-373.764525l-124.660036 124.713931a495.837581 495.837581 0 1 1-77.771046-77.771047l124.660035-124.660035a54.919402 54.919402 0 0 1 77.771047 0 54.865506 54.865506 0 0 1 0.269477 77.717151z m-435.528641 55.512251a385.136452 385.136452 0 1 0 302.299238 302.245343 385.62151 385.62151 0 0 0-302.299238-302.245343z"  horiz-adv-x="1025" />

    
    <glyph glyph-name="jiansuotiaojian-shijianxuanze-xiayiyue" unicode="&#59001;" d="M832 384L192-128V896z"  horiz-adv-x="1024" />

    
    <glyph glyph-name="shuaxin" unicode="&#59002;" d="M945.706194 627.539794a19.613681 19.613681 0 0 1-2.52266 3.78399 109.609573 109.609573 0 0 1-8.198645 9.459975 42.443753 42.443753 0 0 1-9.459975 8.82931 13.748496 13.748496 0 0 0-2.52266 3.153324 28.44299 28.44299 0 0 1-6.937314 1.891995 39.038162 39.038162 0 0 1-11.982635 4.414655 34.93884 34.93884 0 0 1-11.351969 1.26133 76.310462 76.310462 0 0 1-11.982635-0.630665 59.913173 59.913173 0 0 1-11.35197-3.78399c-2.52266-1.26133-5.04532-1.26133-7.567979-2.52266-1.26133-0.630665-1.891995-1.891995-3.153325-2.522659a87.851631 87.851631 0 0 1-17.658619-17.65862 19.613681 19.613681 0 0 1-2.52266-3.78399l-124.871666-219.471411a65.273825 65.273825 0 0 1 22.073275-87.662432 58.399577 58.399577 0 0 1 31.533248-8.82931 61.237569 61.237569 0 0 1 52.975858 31.533249l56.129183 99.014401a396.057605 396.057605 0 0 0-102.798391-331.729777 362.506228 362.506228 0 0 0-438.312158-66.850487 59.660907 59.660907 0 0 1-83.247777-25.857264 64.769293 64.769293 0 0 1 24.595934-86.401102 471.737402 471.737402 0 0 1 233.976706-61.174503 485.612031 485.612031 0 0 1 350.019062 149.4676 529.75858 529.75858 0 0 1 85.139772 606.069041zM295.490603 357.615185a65.021559 65.021559 0 0 1-25.857264 86.401101 60.669971 60.669971 0 0 1-83.247776-26.487929L145.392339 336.172576a393.787211 393.787211 0 0 0 104.059721 319.747142 363.136893 363.136893 0 0 0 438.312158 66.219823 60.102372 60.102372 0 0 1 83.247777 25.857264 65.71529 65.71529 0 0 1-24.595934 87.031766 482.963239 482.963239 0 0 1-583.995767-88.293096 530.704577 530.704577 0 0 1-85.139772-606.699707c1.26133-2.52266 3.153325-4.414655 4.414655-6.937315 1.26133-1.26133 2.52266-3.153325 3.783989-4.414654a49.444134 49.444134 0 0 1 16.39729-13.87463 1.26133 1.26133 0 0 0 0.630665-1.26133c3.153325-1.26133 5.675985-1.891995 8.829309-3.153325 1.26133-0.630665 3.153325-1.26133 4.414655-1.891995a67.355019 67.355019 0 0 1 15.766625-1.891995 67.355019 67.355019 0 0 1 15.766624 1.891995c1.891995 0.630665 3.153325 1.891995 5.04532 2.52266a43.768149 43.768149 0 0 1 8.198645 3.153325c0.630665 0 0.630665 0.630665 1.26133 0.630665a87.347099 87.347099 0 0 1 16.397289 14.505294c1.26133 1.26133 1.891995 3.153325 3.153325 4.414655 1.26133 2.52266 3.153325 4.414655 4.414655 6.937315z"  horiz-adv-x="1024" />

    
    <glyph glyph-name="lurenkujiansuo-guijifenxi-" unicode="&#59003;" d="M9.394495 893.912334a3.966565 3.966565 0 0 0 2.802692-6.771343L9.394495 884.334124l-2.804778 2.805823A3.966565 3.966565 0 0 0 9.394495 893.912334m0 2.087666a6.05423 6.05423 0 0 1-4.279714-10.333945l4.279714-4.279715 4.279715 4.279715a6.05423 6.05423 0 0 1-4.279715 10.333945z m0-3.785982a2.087666 2.087666 0 1 1 2.087666-2.087665 2.087666 2.087666 0 0 1-2.087666 2.087665zM16.179409 876.167176H13.569827a1.043833 1.043833 0 0 0 0 2.087666h2.609582a0.521916 0.521916 0 0 1 0 1.043833h-13.569827a2.609582 2.609582 0 0 0 0 5.219164h2.609582a1.043833 1.043833 0 0 0 0-2.087666h-2.609582a0.521916 0.521916 0 0 1 0-1.043833h13.569827a2.609582 2.609582 0 0 0 0-5.219164z"  horiz-adv-x="7383" />

    
    <glyph glyph-name="jiansuotiaojian-shanchutupian" unicode="&#59004;" d="M960 704H64a64 64 0 0 1 0-128h9.6l108.8-650.496a63.552 63.552 0 0 1 62.72-53.504h533.76a63.552 63.552 0 0 1 62.72 53.504L950.4 576H960a64 64 0 0 1 0 128z m-235.52-704H299.52l-96 576h616.96zM384 768h256a64 64 0 0 1 0 128H384a64 64 0 0 1 0-128z m216.96-639.232a60.672 60.672 0 0 1 9.6-0.768 64 64 0 0 1 63.36 54.336l29.44 192a64.064 64.064 0 0 1-126.72 19.2l-29.44-192a64.512 64.512 0 0 1 53.76-72.768zM413.44 128a60.672 60.672 0 0 1 9.6 0.768 64 64 0 0 1 53.76 72.96l-29.44 192a64.064 64.064 0 0 1-126.72-19.2l29.44-192a64 64 0 0 1 63.36-54.528z"  horiz-adv-x="1024" />

    
    <glyph glyph-name="jiansuotiaojian-xialaxuanze" unicode="&#59005;" d="M853.333333-128L0 896h1706.666667z"  horiz-adv-x="1706" />

    
    <glyph glyph-name="jiansuotiaojian-renlianjietu" unicode="&#59006;" d="M68.266667 145.066667a68.266667 68.266667 0 0 1 0-136.533334v136.533334zM887.466667 896a68.266667 68.266667 0 0 1-68.266667-68.266667v-682.666666H341.333333v-136.533334h546.133334a68.266667 68.266667 0 0 1 68.266666 68.266667V827.733333a68.266667 68.266667 0 0 1-68.266666 68.266667z m136.533333-136.533333v-136.533334a68.266667 68.266667 0 0 1 0 136.533334zM204.8 759.466667a68.266667 68.266667 0 0 1-68.266667-68.266667v-750.933333a68.266667 68.266667 0 0 1 136.533334 0V622.933333h477.866666V759.466667H204.8z m204.8-580.949334a68.266667 68.266667 0 0 0-48.469333 116.053334l273.066666 274.432a68.266667 68.266667 0 0 0 96.938667-95.982934l-273.066667-274.432a67.7888 67.7888 0 0 0-48.469333-20.0704z"  horiz-adv-x="1092" />

    
    <glyph glyph-name="jiansuotiaojian-genghuantupian" unicode="&#59007;" d="M1097.142857 896H73.142857a73.142857 73.142857 0 0 1-73.142857-73.142857v-877.714286a73.142857 73.142857 0 0 1 73.142857-73.142857h1024a73.142857 73.142857 0 0 1 73.142857 73.142857V822.857143a73.142857 73.142857 0 0 1-73.142857 73.142857z m-73.142857-146.285714v-608.768l-283.794286 398.555428L482.742857 178.322286 351.085714 363.154286 146.285714 75.264V749.714286h877.714286zM423.497143 417.499429a109.714286 109.714286 0 1 1-109.714286 109.714285 109.714286 109.714286 0 0 1 109.714286-109.714285z"  horiz-adv-x="1170" />

    
    <glyph glyph-name="daohanglan-qitaxitong" unicode="&#59008;" d="M0 896h186.181818v-186.181818H0V896z m418.909091 0h186.181818v-186.181818H418.909091V896z m418.909091 0h186.181818v-186.181818h-186.181818V896zM0 477.090909h186.181818v-186.181818H0V477.090909z m418.909091 0h186.181818v-186.181818H418.909091V477.090909z m418.909091 0h186.181818v-186.181818h-186.181818V477.090909zM0 58.181818h186.181818v-186.181818H0v186.181818z m418.909091 0h186.181818v-186.181818H418.909091v186.181818z m418.909091 0h186.181818v-186.181818h-186.181818v186.181818z"  horiz-adv-x="1024" />

    
    <glyph glyph-name="daohanglan-huanfu" unicode="&#59009;" d="M848.989091-128H260.189091a46.219636 46.219636 0 0 0-46.08 46.545455v405.783272a47.429818 47.429818 0 0 0-8.843636-0.837818 45.009455 45.009455 0 0 0-33.047273 14.196364L13.032727 503.714909a46.917818 46.917818 0 0 0 0 64.651636L274.618182 841.448727A176.872727 176.872727 0 0 0 402.152727 896a46.219636 46.219636 0 0 0 46.08-46.545455 106.356364 106.356364 0 1 1 212.712728 0 46.219636 46.219636 0 0 0 46.08 46.545455 176.872727 176.872727 0 0 0 127.534545-54.551273l261.585455-273.082182a46.917818 46.917818 0 0 0 0-64.651636L936.96 337.454545a46.824727 46.824727 0 0 0-41.890909-13.358545V-81.454545a46.219636 46.219636 0 0 0-46.08-46.545455zM306.269091-34.909091h496.64v462.336a46.219636 46.219636 0 0 0 28.858182 43.194182 45.614545 45.614545 0 0 0 50.269091-10.891636l21.876363-22.714182 94.952728 99.048727L768 776.843636a82.897455 82.897455 0 0 1-22.341818 16.802909 198.330182 198.330182 0 0 0-381.672727 0 85.085091 85.085091 0 0 1-22.807273-16.802909L110.312727 536.064l94.952728-99.048727 21.876363 22.714182a45.614545 45.614545 0 0 0 50.269091 10.891636 46.219636 46.219636 0 0 0 28.858182-43.194182V-34.909091z"  horiz-adv-x="1109" />

    
    <glyph glyph-name="fanye-shangyiye" unicode="&#59010;" d="M722.188434-128a84.016107 84.016107 0 0 0-59.275168 24.912752L242.832729 323.865772a84.531544 84.531544 0 0 0 0 120.268456L662.913266 871.087248a84.016107 84.016107 0 0 0 118.550335 0 85.90604 85.90604 0 0 0 0-121.127516l-360.805369-365.959732 360.805369-365.959732a85.90604 85.90604 0 0 0 0-121.127516 84.016107 84.016107 0 0 0-59.275167-24.912752z"  horiz-adv-x="1024" />

    
    <glyph glyph-name="daohanglan-renwuxiaoxi" unicode="&#59011;" d="M903.773007 41.702269a47.893441 47.893441 0 0 0-33.110363 13.61722 46.634314 46.634314 0 0 0 0 65.754383 370.696163 370.696163 0 0 1 0 526.035063 46.634314 46.634314 0 0 0 0 65.754383 47.007389 47.007389 0 0 0 66.220726 0 464.431134 464.431134 0 0 0 0-657.543829 46.26124 46.26124 0 0 0-33.110363-13.61722z m-343.694895-169.049389a46.634314 46.634314 0 0 0-30.312304 11.192236l-313.848934 267.960769H46.634314a46.634314 46.634314 0 0 0-46.634314 46.634314V570.395488a46.634314 46.634314 0 0 0 46.634314 46.634314h169.28256L529.765808 884.804034a46.634314 46.634314 0 0 0 76.946619-35.302176v-929.888223a46.634314 46.634314 0 0 0-46.634315-46.960755zM93.268628 244.654804h139.902943a46.634314 46.634314 0 0 0 30.312304-11.23887l249.959923-213.118815v727.4953L263.483875 534.580335a46.634314 46.634314 0 0 0-30.312304-11.145601H93.268628v-278.966467z m645.418908-38.566578a46.634314 46.634314 0 0 0-32.64402 79.278334 139.343331 139.343331 0 0 1 0 197.263149 46.634314 46.634314 0 0 0 65.754383 65.754383 232.19225 232.19225 0 0 0 0-328.771915 46.26124 46.26124 0 0 0-33.110363-13.523951z"  horiz-adv-x="1074" />

    
    <glyph glyph-name="daohanglan-xitongguanliyuan" unicode="&#59012;" d="M731.817447 302.779901a48.947205 48.947205 0 0 0-24.918577-42.940048l-2.669847-1.557411a54.909864 54.909864 0 0 0-54.2869 0l-32.92812 19.044912a19.400892 19.400892 0 0 1-26.253501-6.897106l-35.597967-61.584483a18.73343 18.73343 0 0 1 6.674619-25.719532l32.92812-18.73343a54.64288 54.64288 0 0 0 27.588424-47.122809v-0.311482a54.46489 54.46489 0 0 0-27.14345-46.633337l-33.373094-18.91142a18.73343 18.73343 0 0 1-6.674619-25.719532l35.597967-61.584483a19.400892 19.400892 0 0 1 26.253501-6.897106l35.152993 20.201846a50.816098 50.816098 0 0 0 50.282128 0l2.224873-1.468416a53.396951 53.396951 0 0 0 27.14345-46.588839v-38.00083a19.178405 19.178405 0 0 1 19.133908-18.822425h72.085883a18.822425 18.822425 0 0 1 18.688933 18.822425v38.00083a54.420392 54.420392 0 0 0 27.14345 46.588839l0.889949 0.311482a54.10891 54.10891 0 0 0 53.841926 0l33.373094-19.044912a19.400892 19.400892 0 0 1 26.253501 6.897106l35.597967 61.584483a18.73343 18.73343 0 0 1-6.674619 25.719532l-32.92812 18.73343a54.64288 54.64288 0 0 0-27.588424 47.122809 54.64288 54.64288 0 0 0 27.588424 47.122809l32.92812 18.73343a18.73343 18.73343 0 0 1 6.674619 25.719532l-35.597967 61.584483a19.400892 19.400892 0 0 1-26.253501 6.897106l-32.92812-19.044912a54.909864 54.909864 0 0 0-54.2869 0l-2.669847 1.557411a49.570169 49.570169 0 0 0-25.363552 42.940048v40.403692a18.822425 18.822425 0 0 1-18.688933 18.822425h-72.085883a19.178405 19.178405 0 0 1-19.133908-18.822425v-40.403692z m129.487606-185.509907a74.310757 74.310757 0 1 0-74.310756 73.420807 73.954777 73.954777 0 0 0 74.310756-73.420807zM451.038481 895.975526a310.725756 310.725756 0 0 1-175.764963-569.567475A445.642052 445.642052 0 0 1 1.614145-82.968571a44.942434 44.942434 0 0 1 89.884867 0 358.338037 358.338037 0 0 0 359.539469 355.979671 311.482213 311.482213 0 1 1 0 622.964426z m0-533.969508a222.487295 222.487295 0 1 0 224.712168 222.487295 224.000209 224.000209 0 0 0-224.712168-222.487295z"  horiz-adv-x="1024" />

    
    <glyph glyph-name="danchuang-guanbi" unicode="&#59013;" d="M648.005432 384.211728l342.167642 345.192329a98.207785 98.207785 0 0 1 0 138.095836 96.317356 96.317356 0 0 1-137.0561 0L510.949332 522.307564 167.836474 867.499893a96.317356 96.317356 0 0 1-137.0561 0 98.207785 98.207785 0 0 1 0-138.095836l343.112858-345.192329L30.780374 38.924878a98.207785 98.207785 0 0 1 0-138.095836 96.317356 96.317356 0 0 1 137.0561 0l343.112858 345.28685 342.167642-345.28685a96.317356 96.317356 0 0 1 137.0561 0 98.207785 98.207785 0 0 1 0 138.095836z"  horiz-adv-x="1024" />

    
    <glyph glyph-name="danchuang-yichu" unicode="&#59014;" d="M690.576344 383.972203l290.897705 293.61275a129.287869 129.287869 0 0 1 0 181.003016 126.314248 126.314248 0 0 1-179.710138 0L510.866206 564.975219 219.968501 858.587969a124.762793 124.762793 0 0 1-178.417258 0 127.219263 127.219263 0 0 1 0-181.003016l289.604826-293.61275L41.551243 90.359453a127.219263 127.219263 0 0 1 0-181.003016 124.892081 124.892081 0 0 1 178.417258 0l290.897705 293.483462 290.897705-293.483462a126.443536 126.443536 0 0 1 179.710138 0 129.287869 129.287869 0 0 1 0 181.003016z"  horiz-adv-x="1024" />

    
    <glyph glyph-name="yizhankai" unicode="&#59015;" d="M0 896h4096v-1024H0z"  horiz-adv-x="4096" />

    
    <glyph glyph-name="kezhankai" unicode="&#59016;" d="M0 512h1024v-256H0V512z m384 384h256v-1024H384V896z"  horiz-adv-x="1024" />

    
    <glyph glyph-name="beixuanshebei" unicode="&#59017;" d="M503.569455-128L0 379.190629l155.031495 156.276273 348.53796-350.801193L1096.536634 895.886838l155.031495-156.276273z"  horiz-adv-x="1253" />

    
    <glyph glyph-name="bukongxiangqing1" unicode="&#59020;" d="M512-128a461.5168 461.5168 0 0 0-460.8 460.8V844.8a51.2 51.2 0 0 0 51.2 51.2h819.2a51.2 51.2 0 0 0 51.2-51.2v-512a461.5168 461.5168 0 0 0-460.8-460.8zM153.6 793.6v-460.8a358.4 358.4 0 0 1 716.8 0V793.6H153.6z m563.2-204.8H307.2a51.2 51.2 0 0 0 0 102.4h409.6a51.2 51.2 0 0 0 0-102.4zM486.4 37.376a51.7632 51.7632 0 0 0-38.912 17.92l-128 151.552a51.2 51.2 0 1 0 77.824 66.048l82.944-97.792 141.824 224.768a51.4048 51.4048 0 0 0 87.04-54.784l-179.2-284.16a52.1728 52.1728 0 0 0-39.936-23.552H486.4zM512 384H307.2a51.2 51.2 0 0 0 0 102.4h204.8a51.2 51.2 0 0 0 0-102.4z"  horiz-adv-x="1024" />

    
    <glyph glyph-name="gaojingxiangqing1" unicode="&#59021;" d="M938.666667-128H85.333333a56.888889 56.888889 0 0 0-56.888889 56.888889V839.111111a56.888889 56.888889 0 0 0 56.888889 56.888889h853.333334a56.888889 56.888889 0 0 0 56.888889-56.888889v-910.222222a56.888889 56.888889 0 0 0-56.888889-56.888889zM142.222222-14.222222h739.555556V782.222222H142.222222v-796.444444z m512 341.333333H369.777778a56.888889 56.888889 0 0 0 0 113.777778h284.444444a56.888889 56.888889 0 0 0 0-113.777778z m0-227.555555H369.777778a56.888889 56.888889 0 0 0 0 113.777777h284.444444a56.888889 56.888889 0 0 0 0-113.777777z m0 455.111111H369.777778a56.888889 56.888889 0 0 0 0 113.777777h284.444444a56.888889 56.888889 0 0 0 0-113.777777z"  horiz-adv-x="1024" />

    
    <glyph glyph-name="chengxiaodaiqueren" unicode="&#59018;" d="M512-128a512 512 0 1 0 512 512 512.64 512.64 0 0 0-512-512zM512 768a384 384 0 1 1 384-384 384.32 384.32 0 0 1-384 384z m0-448H256a64 64 0 0 0 0 128h192V640a64 64 0 0 0 128 0v-256a64 64 0 0 0-64-64z"  horiz-adv-x="1024" />

    
    <glyph glyph-name="chuzhijilu-b" unicode="&#59019;" d="M512 896a512 512 0 1 1 512-512 511.634286 511.634286 0 0 1-512 512z m0-914.285714A402.285714 402.285714 0 1 0 914.285714 384 403.017143 403.017143 0 0 0 512-18.285714z m185.051429 587.337143a55.149714 55.149714 0 0 1-77.531429 0L512 461.531429 404.48 569.051429a54.857143 54.857143 0 1 1-77.531429-77.531429L434.468571 384 326.948571 276.48a55.149714 55.149714 0 0 1 0-77.531429 54.710857 54.710857 0 0 1 77.531429 0L512 306.468571l107.52-107.52a54.710857 54.710857 0 0 1 77.531429 0 55.149714 55.149714 0 0 1 0 77.531429L589.531429 384l107.52 107.52a55.149714 55.149714 0 0 1 0 77.531429z"  horiz-adv-x="1024" />

    
    <glyph glyph-name="chuzhijilu-c" unicode="&#59022;" d="M512 786.285714A402.285714 402.285714 0 1 0 109.714286 384 403.017143 403.017143 0 0 0 512 786.285714M512 896a512 512 0 1 1 512-512 511.634286 511.634286 0 0 1-512 512z m0-599.04a55.222857 55.222857 0 0 0-54.857143 54.857143V630.491429a54.857143 54.857143 0 0 0 109.714286 0v-278.674286a55.222857 55.222857 0 0 0-54.857143-54.857143zM585.142857 164.571429a73.142857 73.142857 0 1 0-73.142857 73.142857 73.142857 73.142857 0 0 0 73.142857-73.142857z"  horiz-adv-x="1024" />

    
    <glyph glyph-name="chuzhijilu-a" unicode="&#59023;" d="M512 786.285714A402.285714 402.285714 0 1 0 109.714286 384 403.017143 403.017143 0 0 0 512 786.285714M512 896a512 512 0 1 1 512-512 511.634286 511.634286 0 0 1-512 512z m-39.497143-787.748571a53.833143 53.833143 0 0 0-35.108571 13.165714L245.028571 281.6a54.418286 54.418286 0 0 0-6.582857 76.8 55.369143 55.369143 0 0 0 77.531429 7.314286l141.897143-118.491429L658.285714 588.8a54.784 54.784 0 1 0 94.354286-55.588571l-232.594286-397.165715a53.833143 53.833143 0 0 0-38.034285-27.062857c-2.925714 0-6.582857-0.731429-9.508572-0.731428z"  horiz-adv-x="1024" />

    
    <glyph glyph-name="guijifenxi-xuanzequyu" unicode="&#59024;" d="M786.94458-127.357999H236.749691a63.365502 63.365502 0 0 0-60.990099 44.940073L5.629318 470.986968A65.163105 65.163105 0 0 0 28.099354 540.965081L473.006073 882.509632a62.659301 62.659301 0 0 0 77.682125 0l445.54872-341.544551a64.842105 64.842105 0 0 0 21.828035-69.978113l-170.130275-553.404894a63.365502 63.365502 0 0 0-60.990098-44.940073z m-503.328813 127.758206h456.462737l143.166231 465.450752-371.076599 285.690462-371.718601-285.690462z"  horiz-adv-x="1024" />

    
    <glyph glyph-name="guijifenxi-xuanzequyu1" unicode="&#59025;" d="M512-128a512 512 0 1 0 512 512 512.704 512.704 0 0 0-512-512zM512 768a384 384 0 1 1 384-384 384 384 0 0 1-384 384z"  horiz-adv-x="1024" />

    
    <glyph glyph-name="guijifenxi-xuanzequyu2" unicode="&#59026;" d="M955.733333-128H68.266667a68.266667 68.266667 0 0 0-68.266667 68.266667V827.733333a68.266667 68.266667 0 0 0 68.266667 68.266667h887.466666a68.266667 68.266667 0 0 0 68.266667-68.266667v-887.466666a68.266667 68.266667 0 0 0-68.266667-68.266667zM136.533333 8.533333h750.933334V759.466667H136.533333v-750.933334z"  horiz-adv-x="1024" />

    
    <glyph glyph-name="guijifenxi-xuanzequyu-shanchu" unicode="&#59027;" d="M960 704H64a64 64 0 0 1 0-128h5.76L134.4-70.4a64 64 0 0 1 63.36-57.6h628.48a64 64 0 0 1 63.36 57.6L954.24 576H960a64 64 0 0 1 0 128z m-192-704H256l-57.6 576h627.2zM384 768h256a64 64 0 0 1 0 128H384a64 64 0 0 1 0-128z m8.32-599.04h5.12a64 64 0 0 1 58.88 68.48L448 356.48a64.128 64.128 0 1 1-128-8.96l8.96-119.68a64 64 0 0 1 63.36-58.88z m231.68-8.96h5.12a64 64 0 0 1 64 58.88l10.88 128a64.192 64.192 0 1 1-128 10.24l-10.24-128a64 64 0 0 1 58.24-69.12z"  horiz-adv-x="1024" />

    
    <glyph glyph-name="guijifenxi-xuanzequyu3" unicode="&#59028;" d="M72.713805-127.262893a77.175095 77.175095 0 0 0-22.113208 3.685535 73.710693 73.710693 0 0 0-47.174844 92.138365L282.052172 844.981144a69.288051 69.288051 0 0 0 71.499372 50.860378 73.710693 73.710693 0 0 0 68.550944-53.808806l171.008807-633.911957L789.918845 844.244037a72.752454 72.752454 0 0 0 140.050316-2.948428l232.188682-876.420136a72.826164 72.826164 0 0 0-140.787423-37.592453l-167.323273 631.700636-196.070442-634.649064a71.941636 71.941636 0 0 0-71.499372-51.597485 73.047296 73.047296 0 0 0-68.550944 54.545913L346.180475 564.880512l-204.178619-641.283027a72.531322 72.531322 0 0 0-69.288051-50.860378z"  horiz-adv-x="1165" />

    
    <glyph glyph-name="jingqingxiafa-xiafa" unicode="&#59029;" d="M1107.808639-127.997085H408.140025a56.848075 56.848075 0 1 0 0 113.69615h641.362896V782.300935H408.140025a56.848075 56.848075 0 1 0 0 113.69615h699.668614a57.722661 57.722661 0 0 0 58.305718-56.848075v-910.29802a57.722661 57.722661 0 0 0-58.305718-56.848075z m-466.445743 284.969196a61.658297 61.658297 0 0 0-41.542824 16.034073l-116.611435 113.696149a56.410782 56.410782 0 0 0 2.915285 77.255076 59.253186 59.253186 0 0 0 79.441541 2.915286l75.068612-72.882147 191.680047 187.307119a60.054889 60.054889 0 0 0 79.441541-3.644108 55.681961 55.681961 0 0 0 2.915285-77.255076l-233.222871-227.392299a56.775193 56.775193 0 0 0-40.085181-16.034073zM233.222871 327.516336H58.305718a56.848075 56.848075 0 1 0 0 113.69615h174.917153a56.848075 56.848075 0 1 0 0-113.69615z m116.611436-227.3923H174.917153a56.848075 56.848075 0 1 0 0 113.69615h174.917154a56.848075 56.848075 0 1 0 0-113.69615z m0 454.784599H174.917153a56.848075 56.848075 0 1 0 0 113.69615h174.917154a56.848075 56.848075 0 1 0 0-113.69615z m0 0"  horiz-adv-x="1167" />

    
    <glyph glyph-name="jiaobiao" unicode="&#59030;" d="M0 896h649.365854l374.634146-374.634146v-649.365854z"  horiz-adv-x="1024" />

    
    <glyph glyph-name="zhinengwajue-renjizhanfa-renlianduibia-shangchuantupian" unicode="&#59031;" d="M0.017716 697.5618a86.868421 86.868421 0 0 0 14.332209 40.162073 94.071729 94.071729 0 0 0 44.537914 36.055515c1.169253 0.471244 2.356222 1.027525 3.543192 1.541288a10.868739 10.868739 0 0 1 1.133821 0.473016c-21.436307 12.755489-33.784329 30.648605-34.528399 55.321617a59.2333 59.2333 0 0 0 17.662808 44.745192 65.680137 65.680137 0 0 0 95.595301-0.983236c27.743188-29.291562 20.072179-80.118642-17.893116-99.170381 1.842459-0.770644 3.507759-1.49877 5.17306-2.226896 26.219616-11.006924 44.325323-29.585647 53.785643-55.920416a150.247255 150.247255 0 0 0 4.42899-18.670847"  horiz-adv-x="48868" />

    
    <glyph glyph-name="shipinjiegouhua-bofang" unicode="&#59032;" d="M877.581273 350.106649L189.482291-121.330684a39.456977 39.456977 0 0 0-61.391731 33.957301V855.373383A39.456977 39.456977 0 0 0 189.482291 889.330684L877.581273 417.893351a41.247569 41.247569 0 0 0 0-67.786702z"  horiz-adv-x="1024" />

    
    <glyph glyph-name="shipinjiegouhua-shanchu" unicode="&#59033;" d="M960 704H64a64 64 0 0 1 0-128h9.6l108.8-650.496a63.552 63.552 0 0 1 62.72-53.504h533.76a63.552 63.552 0 0 1 62.72 53.504L950.4 576H960a64 64 0 0 1 0 128z m-235.52-704H299.52l-96 576h616.96zM384 768h256a64 64 0 0 1 0 128H384a64 64 0 0 1 0-128z m216.96-639.232a60.672 60.672 0 0 1 9.6-0.768 64 64 0 0 1 63.36 54.336l29.44 192a64.064 64.064 0 0 1-126.72 19.2l-29.44-192a64.448 64.448 0 0 1 53.76-72.768zM413.44 128a60.672 60.672 0 0 1 9.6 0.768 64 64 0 0 1 53.76 72.896l-29.44 192a64.064 64.064 0 0 1-126.72-19.2l29.44-192a64 64 0 0 1 63.36-54.464z"  horiz-adv-x="1024" />

    
    <glyph glyph-name="shipinjiegouhua-zanting" unicode="&#59035;" d="M96-108.148968V876.148968A23.033493 23.033493 0 0 0 120.952951 895.855401h200.903245a22.58562 22.58562 0 0 0 24.95295-19.706433v-984.297936a22.58562 22.58562 0 0 0-24.95295-19.706433H120.952951a23.033493 23.033493 0 0 0-24.952951 19.706433z m580.95588 0V876.148968A22.58562 22.58562 0 0 0 701.908831 895.855401h200.903245a23.033493 23.033493 0 0 0 24.95295-19.706433v-984.297936a23.033493 23.033493 0 0 0-24.95295-19.706433H701.908831a22.58562 22.58562 0 0 0-24.952951 19.706433z"  horiz-adv-x="1024" />

    
    <glyph glyph-name="shipinjiegouhua-bianji" unicode="&#59036;" d="M95.105041-1.671985a64.68783 64.68783 0 0 0-45.563848 18.418063 63.404341 63.404341 0 0 0-17.327098 58.270386l64.174435 279.222963a60.837364 60.837364 0 0 0 19.25233 32.472264L661.765294 879.314647a64.752004 64.752004 0 0 0 88.560719-1.861058l221.401798-217.422983a64.174434 64.174434 0 0 0 18.610586-45.756372 63.019294 63.019294 0 0 0-20.535819-44.922104l-545.48269-491.64034a65.522097 65.522097 0 0 0-29.52024-15.080992l-286.217976-62.826771a60.323968 60.323968 0 0 0-13.476631-1.476012z m121.931425 309.12825l-37.862916-163.259761 171.345739 37.542044 483.233489 435.872757-130.274102 128.348868z m709.127497-434.717617H95.105041a62.826771 62.826771 0 1 0 0 125.589367h831.058922a62.826771 62.826771 0 1 0 0-125.589367z"  horiz-adv-x="1024" />

    
    <glyph glyph-name="shipinjiegouhua-tingzhi1" unicode="&#59037;" d="M512 804.465778a420.010667 420.010667 0 0 0 387.413333-256.853334 420.977778 420.977778 0 0 0-89.884444-460.8 420.352 420.352 0 0 0-595.057778 0 420.977778 420.977778 0 0 0 0 594.602667A418.759111 418.759111 0 0 0 512 804.579556M512 895.943111a512 512 0 1 1 512-512 512 512 0 0 1-512 512z m173.511111-694.613333h-347.022222a9.045333 9.045333 0 0 0-9.102222 9.102222V557.795556a9.045333 9.045333 0 0 0 9.102222 9.102222h347.022222a9.045333 9.045333 0 0 0 9.102222-9.102222v-347.363556a9.045333 9.045333 0 0 0-9.102222-9.216z"  horiz-adv-x="1024" />

    
    <glyph glyph-name="shipinjiegouhua-shenhe" unicode="&#59034;" d="M912.377925-36.352687H111.615931a9.164731 9.164731 0 0 1-9.215931-9.215931v-73.215451a9.164731 9.164731 0 0 1 9.215931-9.215931h800.761994a9.164731 9.164731 0 0 1 9.215931 9.215931v73.215451a9.164731 9.164731 0 0 1-9.215931 9.215931zM511.996928 804.345007a115.403934 115.403934 0 0 0 116.223128-114.175143 113.30475 113.30475 0 0 0-54.271593-96.767275l-38.911708-24.063819a9.523129 9.523129 0 0 1-4.607965-7.679942v-269.309981a9.574328 9.574328 0 0 1 9.727927-8.703934h265.214011a22.937428 22.937428 0 0 0 23.039827-23.039828v-160.254798H195.583301v160.254798a22.937428 22.937428 0 0 0 23.039827 23.039828h265.214011a9.574328 9.574328 0 0 1 9.727927 8.703934V561.658828a9.523129 9.523129 0 0 1-4.607965 7.679942l-38.911708 24.063819a113.30475 113.30475 0 0 0-54.271593 96.767275A115.403934 115.403934 0 0 0 511.996928 804.345007M511.996928 895.99232a207.614443 207.614443 0 0 1-209.406429-205.822456 204.491266 204.491266 0 0 1 97.791266-174.078695v-141.31094h-204.798464A92.159309 92.159309 0 0 1 102.4 283.644913v-265.214011a9.164731 9.164731 0 0 1 9.215931-9.215931h800.761994a9.164731 9.164731 0 0 1 9.215931 9.215931v265.214011a92.159309 92.159309 0 0 1-93.183301 91.135316h-204.798464V516.091169a204.491266 204.491266 0 0 1 97.791266 174.078695A207.614443 207.614443 0 0 1 511.996928 895.99232z"  horiz-adv-x="1024" />

    
    <glyph glyph-name="yirenyidang-rukushenhe-bingji" unicode="&#59040;" d="M170.666667 896a85.333333 85.333333 0 0 0 85.333333-85.333333v-512a256 256 0 0 1 512 0V810.666667a85.333333 85.333333 0 0 0 170.666667 0v-512A426.666667 426.666667 0 0 0 85.333333 298.666667V810.666667a85.333333 85.333333 0 0 0 85.333334 85.333333z"  horiz-adv-x="1024" />

    
    <glyph glyph-name="yirenyidang-rukushenhe-gengduo" unicode="&#59042;" d="M512 896A512 512 0 1 0 0 384 512 512 0 0 0 512 896z m1706.666667 0A512 512 0 1 0 1706.666667 384 512 512 0 0 0 2218.666667 896z m1706.666666 0A512 512 0 1 0 3413.333333 384 512 512 0 0 0 3925.333333 896z"  horiz-adv-x="4437" />

    
    <glyph glyph-name="yirenyidang-rukushenhe-rizhixiazai" unicode="&#59044;" d="M599.552 790.0672H214.016a36.8128 36.8128 0 0 1-36.864-36.864V14.848a36.8128 36.8128 0 0 1 36.864-36.9152h595.968a36.8128 36.8128 0 0 1 36.864 36.9152V536.7296h-113.152a137.728 137.728 0 0 0-134.144 141.2608V790.0672z m100.352-10.24v-101.888a35.1744 35.1744 0 0 1 10.24-24.9856 32.512 32.512 0 0 1 23.552-10.24h104.448c-0.512 0.768-1.536 1.4336-2.048 2.1504l-135.168 134.4512c-0.512 0-0.512 0.4096-1.024 0.6144zM221.696-128a145.8176 145.8176 0 0 0-145.408 146.3296V749.7216A145.7664 145.7664 0 0 0 221.696 896h448.512a144.3328 144.3328 0 0 0 102.912-42.8544l132.096-133.12a147.1488 147.1488 0 0 0 42.496-103.3728V18.432a145.8176 145.8176 0 0 0-145.408-146.3296H221.696z m340.48 446.8736l32.768 34.4064a48.4864 48.4864 0 0 0 48.64 14.4896 51.712 51.712 0 0 0 36.352-37.8368 55.6032 55.6032 0 0 0-13.824-51.5072l-118.784-124.928a47.9744 47.9744 0 0 0-70.656 0l-118.784 124.7744a55.3472 55.3472 0 0 0-13.312 51.5072 51.2 51.2 0 0 0 35.84 37.8368 48.2304 48.2304 0 0 0 48.64-14.4384l32.768-34.3552V577.0752a50.2272 50.2272 0 1 0 100.352 0v-258.2016z m0 0"  horiz-adv-x="1024" />

    
    <glyph glyph-name="yirenyidang-zhuantidangan-gengduo-xiangqing" unicode="&#59045;" d="M85.333333 896a85.333333 85.333333 0 1 0-85.333333-85.333333 85.333333 85.333333 0 0 0 85.333333 85.333333z m341.333334 0h768a85.333333 85.333333 0 0 0 0-170.666667H426.666667a85.333333 85.333333 0 0 0 0 170.666667zM85.333333 469.333333a85.333333 85.333333 0 1 0-85.333333-85.333333 85.333333 85.333333 0 0 0 85.333333 85.333333z m341.333334 0h768a85.333333 85.333333 0 0 0 0-170.666666H426.666667a85.333333 85.333333 0 0 0 0 170.666666z m-341.333334-426.666666a85.333333 85.333333 0 1 0-85.333333-85.333334 85.333333 85.333333 0 0 0 85.333333 85.333334z m341.333334 0h768a85.333333 85.333333 0 0 0 0-170.666667H426.666667a85.333333 85.333333 0 0 0 0 170.666667z"  horiz-adv-x="1280" />

    
    <glyph glyph-name="yirenyidang-zhuantidangan-gengduo-shanchu" unicode="&#59046;" d="M960 704H64a64 64 0 0 1 0-128h9.6l108.8-650.496a63.552 63.552 0 0 1 62.72-53.504h533.76a64 64 0 0 1 62.72 53.504L950.4 576H960a64 64 0 0 1 0 128z m-235.52-704H299.52l-96 576h616.96zM384 768h256a64 64 0 0 1 0 128H384a64 64 0 0 1 0-128z m216.96-639.232a60.672 60.672 0 0 1 9.6-0.768 64 64 0 0 1 63.36 54.336l29.44 192a64.064 64.064 0 0 1-126.72 19.2l-29.44-192a64.512 64.512 0 0 1 53.76-72.768zM413.44 128a60.672 60.672 0 0 1 9.6 0.768 64 64 0 0 1 53.76 72.96l-29.44 192a64.064 64.064 0 0 1-126.72-19.2l29.44-192a64 64 0 0 1 63.36-54.528z"  horiz-adv-x="1024" />

    
    <glyph glyph-name="yirenyidang-rukushenhe-jiaoji" unicode="&#59047;" d="M853.333333-128a85.333333 85.333333 0 0 0-85.333333 85.333333V469.333333a256 256 0 0 1-512 0v-512a85.333333 85.333333 0 0 0-170.666667 0V469.333333a426.666667 426.666667 0 0 0 853.333334 0v-512a85.333333 85.333333 0 0 0-85.333334-85.333333z"  horiz-adv-x="1024" />

    
    <glyph glyph-name="yirenyidang-zhuantidangan-gengduo-bianji" unicode="&#59048;" d="M95.108889-2.19886a64.216691 64.216691 0 0 0-44.951684 18.365974 63.510308 63.510308 0 0 0-17.338506 58.308756l64.216691 279.47104a60.94164 60.94164 0 0 0 19.265007 32.429429L662.784439 879.30366a64.794641 64.794641 0 0 0 88.619034-1.862284l221.547585-217.501933a64.216691 64.216691 0 0 0 18.62284-45.850717 63.060791 63.060791 0 0 0-20.549341-44.951684l-545.841875-491.964071a64.794641 64.794641 0 0 0-29.539678-15.026706l-286.406443-62.868141a58.437189 58.437189 0 0 0-14.127672-1.476984z m122.011714 309.267585l-37.245681-163.367262 171.458565 37.566764 483.551685 436.159767-130.359883 128.433382z m710.236604-435.003866H95.108889a62.868141 62.868141 0 1 0 0 125.736281h832.248318a62.868141 62.868141 0 1 0 0-125.736281z"  horiz-adv-x="1024" />

    
    <glyph glyph-name="yirenyidang-zhuantidangan-gengduo" unicode="&#59049;" d="M512 896a512 512 0 1 0-512-512 512 512 0 0 0 512 512z m1792 0a512 512 0 1 0-512-512 512 512 0 0 0 512 512z m1792 0a512 512 0 1 0-512-512 512 512 0 0 0 512 512z"  horiz-adv-x="4608" />

    
    <glyph glyph-name="yirenyidang-renyuandangan-sousuo" unicode="&#59041;" d="M991.285736 37.542616l-163.363159 165.028822a454.854286 454.854286 0 0 1 70.470383 242.994691 447.486928 447.486928 0 1 1-447.166608-451.202638 443.258705 443.258705 0 0 1 240.880579 71.495406l163.363159-165.028823a96.80068 96.80068 0 0 1 67.907823-28.316281 94.622504 94.622504 0 0 1 67.907823 28.316281 96.608488 96.608488 0 0 1 0 136.712542zM131.547072 445.566129a319.67928 319.67928 0 1 0 319.67928-322.241839A321.409007 321.409007 0 0 0 131.547072 445.566129z"  horiz-adv-x="1024" />

    
    <glyph glyph-name="yirenyidang-renyuandangan-biaoqian1" unicode="&#59050;" d="M852.930977 797.793809v-797.376629l-275.773815 194.00144L511.892826 240.16764l-64.62449-45.74902-276.413661-194.00144V797.793809h682.076302m32.632168 98.024475H138.862353A71.726786 71.726786 0 0 1 64.00032 827.4187v-886.891147a63.600736 63.600736 0 0 1 15.356314-41.654003 77.549388 77.549388 0 0 1 59.505719-26.809565 78.829081 78.829081 0 0 1 45.429097 14.140606l327.601376 230.344717 327.601375-230.344717a81.324482 81.324482 0 0 1 46.068944-14.204591A71.662801 71.662801 0 0 1 959.785332-59.472447V827.4187a71.534832 71.534832 0 0 1-74.222187 68.399584z"  horiz-adv-x="1024" />

    
    <glyph glyph-name="yirenyidang-renyuandangan-xiangqing1" unicode="&#59051;" d="M1224.414354 736.475429H358.402926a19.529143 19.529143 0 0 0-19.017143 19.456V849.846857A19.382857 19.382857 0 0 0 358.402926 869.302857h866.011428a19.456 19.456 0 0 0 19.017143-19.456v-93.915428a19.529143 19.529143 0 0 0-19.017143-19.456zM0.002926 803.035429A91.428571 91.428571 0 1 1 91.431497 896.073143 92.306286 92.306286 0 0 1 0.002926 803.035429z m1224.411428-485.376H358.402926a19.456 19.456 0 0 0-19.017143 19.382857V430.957714a19.382857 19.382857 0 0 0 19.017143 19.456h866.011428a19.456 19.456 0 0 0 19.017143-19.456v-93.915428a19.456 19.456 0 0 0-19.017143-19.382857zM0.002926 384a91.428571 91.428571 0 1 1 91.428571 93.037714A92.306286 92.306286 0 0 1 0.002926 384z m1224.411428-485.376H358.402926a19.529143 19.529143 0 0 0-19.017143 19.456v93.915429a19.382857 19.382857 0 0 0 19.017143 19.456h866.011428a19.529143 19.529143 0 0 0 19.017143-19.456v-93.915429a19.529143 19.529143 0 0 0-19.017143-19.309714zM0.002926-34.889143a91.428571 91.428571 0 1 1 91.428571 93.110857A92.306286 92.306286 0 0 1 0.002926-34.742857z"  horiz-adv-x="1243" />

    
    <glyph glyph-name="yirenyidang-renyuandangan-daoru" unicode="&#59038;" d="M1013.76 435.2h-435.2V635.264a3.392 3.392 0 0 1-5.76 2.432L325.12 389.632a7.808 7.808 0 0 1 0-11.264l247.68-248.064a3.392 3.392 0 0 1 5.76 2.304V332.8h435.2a10.176 10.176 0 0 1 10.24 10.24V424.96a10.176 10.176 0 0 1-10.24 10.24z m-460.8 358.4a10.176 10.176 0 0 1 10.24 10.24V885.76A10.176 10.176 0 0 1 552.96 896H10.24A10.176 10.176 0 0 1 0 885.76v-1003.52a10.176 10.176 0 0 1 10.24-10.24h542.72a10.176 10.176 0 0 1 10.24 10.24v81.92a10.176 10.176 0 0 1-10.24 10.24H102.4V793.6h450.56z"  horiz-adv-x="1024" />

    
    <glyph glyph-name="yirenyidang-xinzengzhuantiku-qingchu" unicode="&#59043;" d="M809.642667 553.301333L1024 767.658667 895.658667 896 681.301333 681.642667 506.538667 857.088 377.514667 728.064 552.96 553.301333 681.301333 424.96l174.762667-175.445333 129.024 129.024zM0 471.381333l96.256-96.256 96.256 96.256a45.397333 45.397333 0 1 0 64.170667-64.170666L160.426667 310.954667l107.178666-107.178667L406.869333 343.04a45.397333 45.397333 0 1 0 64.170667-64.170667l-139.264-139.264 107.178667-107.178666 96.256 96.256a45.397333 45.397333 0 1 0 64.170666-64.170667l-96.256-96.256L599.381333-128l214.357334 335.189333-478.549334 478.549334z"  horiz-adv-x="1024" />

    
    <glyph glyph-name="yirenyidang-xinzengzhuantiku-xuanzerenyuanbiaoqian-bianji" unicode="&#59052;" d="M104.600245-1.780295a61.14833 61.14833 0 0 0-44.347464 17.909553 64.900808 64.900808 0 0 0-17.056717 58.845673l63.109853 278.877322a58.419255 58.419255 0 0 0 17.909553 32.407762L658.090709 879.199134a61.489464 61.489464 0 0 0 86.136421-1.705672l216.620304-217.473141a60.380778 60.380778 0 0 0 17.909553-46.053135 59.016241 59.016241 0 0 0-20.46806-44.347464L426.119359 77.533439a63.792121 63.792121 0 0 0-28.996419-15.351045l-278.877321-62.257017a39.912718 39.912718 0 0 0-13.645374-1.705672z m118.544183 308.726576l-35.819106-162.891646 166.30299 37.524777L826.099371 617.378529 698.173994 746.156742z m693.355542-434.946281H104.600245a63.109853 63.109853 0 1 0 0 126.219705h811.899725a63.109853 63.109853 0 0 0 0-126.219705z"  horiz-adv-x="1024" />

    
    <glyph glyph-name="yirenyidang-xinzengzhuantiku-xuanzerenyuanbiaoqian-zengjiaxiaji" unicode="&#59053;" d="M714.823166 446.072587h326.572973a61.123707 61.123707 0 0 1 61.67722 60.886486V834.32278a61.756293 61.756293 0 0 1-61.67722 61.67722H714.823166a61.598147 61.598147 0 0 1-60.886486-61.67722v-164.472587L449.927413 515.657143V629.52278a61.756293 61.756293 0 0 1-61.67722 61.67722H61.67722a61.598147 61.598147 0 0 1-60.886486-61.67722v-490.254826a61.598147 61.598147 0 0 1 60.886486-61.67722h326.572973a61.756293 61.756293 0 0 1 61.67722 61.67722V267.366795l204.009267-166.844787v-166.054054a60.886486 60.886486 0 0 1 60.886486-60.886487h326.572973a61.123707 61.123707 0 0 1 61.67722 60.886487V261.83166a61.756293 61.756293 0 0 1-61.67722 61.67722H714.823166a61.598147 61.598147 0 0 1-60.886486-61.67722v-3.162934L490.254826 392.302703l163.681854 124.145173v-9.488803a60.886486 60.886486 0 0 1 60.886486-60.886486z m-387.459459-245.918147H123.35444V568.636293h204.009267v-368.481853z m449.136679 0h204.009267v-204.009266H776.500386V200.15444z m0 573.281853h204.009267v-204.8H776.500386V773.436293z"  horiz-adv-x="1103" />

    
    <glyph glyph-name="yirenyidang-xinzengzhuantiku-xuanzerenyuanbiaoqian-shanchu" unicode="&#59054;" d="M960 704H64a64 64 0 0 1 0-128h9.386667l109.226666-650.24a63.232 63.232 0 0 1 62.293334-53.76h533.333333a65.706667 65.706667 0 0 1 64 53.76l108.373333 650.24h9.386667a64 64 0 0 1 0 128zM724.48 0H299.52L203.946667 576h616.106666z m-340.48 768h256a64 64 0 0 1 0 128h-256a64 64 0 0 1 0-128z m216.746667-639.146667a41.557333 41.557333 0 0 1 10.24-0.853333 64.768 64.768 0 0 1 63.146666 54.613333l29.013334 192a63.829333 63.829333 0 1 1-126.293334 18.773334l-29.013333-192a62.464 62.464 0 0 1 52.906667-72.533334zM413.013333 128a41.557333 41.557333 0 0 1 10.24 0.853333 62.464 62.464 0 0 1 52.906667 72.533334l-29.013333 192a63.829333 63.829333 0 0 1-126.293334-18.773334l29.013334-192a64.768 64.768 0 0 1 63.146666-54.613333z"  horiz-adv-x="1024" />

    
    <glyph glyph-name="yirenyidang-xinzengzhuantiku-xuanzerenyuanbiaoqian" unicode="&#59055;" d="M1005.110703 289.943121a88.704689 88.704689 0 0 1-24.399692 62.179861L506.097636 833.820138a214.874712 214.874712 0 0 1-66.902383 44.076864 194.489162 194.489162 0 0 1-77.921598 18.102998H85.006168a84.926672 84.926672 0 0 1-59.818601-25.973866A86.579554 86.579554 0 0 1 0.000788 808.633359v-280.202921a233.922214 233.922214 0 0 1 60.605688-147.185242l474.613374-483.27133a77.84289 77.84289 0 0 1 59.818601-24.399692 85.084089 85.084089 0 0 1 60.605688 24.399692l325.066872 331.363567a85.713759 85.713759 0 0 1 24.399692 60.605688zM271.545753 618.15834a82.722829 82.722829 0 0 0-118.850115 0 85.477633 85.477633 0 0 0 0 121.211376 82.722829 82.722829 0 0 0 118.850115 0 79.574481 79.574481 0 0 0 24.399693-60.605688 73.356495 73.356495 0 0 0-24.399693-60.605688zM1234.940065 352.122982L761.113778 833.820138a229.042275 229.042275 0 0 1-67.68947 44.076864 194.489162 194.489162 0 0 1-77.921599 18.102998H466.743293a188.349885 188.349885 0 0 0 77.134512-18.102998 190.553728 190.553728 0 0 0 67.68947-44.076864L1086.180649 352.122982a86.579554 86.579554 0 0 0 24.399693-61.392774 85.556341 85.556341 0 0 0-24.399693-61.392775l-310.899308-317.196003a220.38432 220.38432 0 0 1 35.418909-30.696388 70.129439 70.129439 0 0 1 38.567256-8.657955 81.46349 81.46349 0 0 1 60.605688 25.186779l325.066871 332.150654a79.574481 79.574481 0 0 1 24.399693 60.605688 86.579554 86.579554 0 0 1-24.399693 61.392774z m0 0"  horiz-adv-x="1260" />

    
    <glyph glyph-name="yirenyidang-zuocedaohang-Tabrenyuandangan" unicode="&#59056;" d="M863.959081 661.7197H201.676569V808.209062h662.282512a43.866947 43.866947 0 1 1 0 87.733894H157.182136a43.695814 43.695814 0 0 1-43.923991-43.866947v-936.094404a43.752858 43.752858 0 0 1 43.923991-43.92399h706.776945a43.752858 43.752858 0 0 1 43.923991 43.92399V617.79571a43.752858 43.752858 0 0 1-43.923991 43.92399z m-44.494433-702.099324H201.676569V573.928763h338.271774V325.330383l86.136657 58.470248 90.700189-58.470248V573.928763h102.679459v-614.308387z"  horiz-adv-x="1024" />

    
    <glyph glyph-name="yirenyidang-zuocedaohang-Tabhuishouzhan" unicode="&#59057;" d="M980.873716 716.717045H768.447088V885.762572a10.173444 10.173444 0 0 1-10.237427 10.237428H266.813124a10.173444 10.173444 0 0 1-10.237428-10.237428V716.717045H44.149068a43.956956 43.956956 0 0 1-44.148907-43.637036v-47.923959a11.005235 11.005235 0 0 1 10.877267-10.877268h110.052349l43.509069-703.823164a41.077679 41.077679 0 0 1 40.949711-38.390354h614.245671a39.989953 39.989953 0 0 1 40.309872 38.390354l44.148907 703.823164h110.05235a11.005235 11.005235 0 0 1 10.877267 10.877268v47.923959a43.956956 43.956956 0 0 1-44.148908 43.637036zM358.949975 793.497754h307.122835v-76.780709H358.949975V793.497754z m410.776792-819.506099H255.296018L222.664216 614.214799h579.694352z"  horiz-adv-x="1025" />

    
    <glyph glyph-name="yirenyidang-zuocedaohang-Tabrukushenqing" unicode="&#59058;" d="M1013.76 435.2h-435.2V635.264a3.392 3.392 0 0 1-5.76 2.432L325.12 389.632a7.808 7.808 0 0 1 0-11.264l247.68-248.064a3.392 3.392 0 0 1 5.76 2.304V332.8h435.2a10.176 10.176 0 0 1 10.24 10.24V424.96a10.176 10.176 0 0 1-10.24 10.24z m-460.8 358.4a10.176 10.176 0 0 1 10.24 10.24V885.76A10.176 10.176 0 0 1 552.96 896H10.24A10.176 10.176 0 0 1 0 885.76v-1003.52a10.176 10.176 0 0 1 10.24-10.24h542.72a10.176 10.176 0 0 1 10.24 10.24v81.92a10.176 10.176 0 0 1-10.24 10.24H102.4V793.6h450.56z"  horiz-adv-x="1024" />

    
    <glyph glyph-name="yirenyidang-zuocedaohang-Tabrukushenhe" unicode="&#59059;" d="M885.028571-128H138.971429A138.971429 138.971429 0 0 0 0 10.971429V757.028571A138.971429 138.971429 0 0 0 138.971429 896h746.057142A138.971429 138.971429 0 0 0 1024 757.028571v-746.057142a138.971429 138.971429 0 0 0-138.971429-138.971429zM138.971429 805.376a47.908571 47.908571 0 0 1-48.274286-47.981714V10.971429a47.981714 47.981714 0 0 1 48.274286-48.054858h746.057142a47.981714 47.981714 0 0 1 48.274286 48.054858V757.028571a47.908571 47.908571 0 0 1-48.274286 47.981715H138.971429zM73.142857 603.428571h877.714286v-73.142857H73.142857V603.428571z m373.76-451.364571l304.274286 304.201143a47.908571 47.908571 0 1 0 68.022857-67.584l-337.92-338.066286a48.347429 48.347429 0 0 0-68.022857 0L210.651429 253.513143a47.616 47.616 0 0 0 21.211428 80.457143 47.104 47.104 0 0 0 46.08-13.019429z m13.897143 29.696"  horiz-adv-x="1024" />

    
    <glyph glyph-name="yirenyidang-zuocedaohang-Tabzhuantishenheshenpi" unicode="&#59060;" d="M885.028571-128H138.971429A138.971429 138.971429 0 0 0 0 10.605714V757.028571A138.971429 138.971429 0 0 0 138.971429 896h746.057142A138.971429 138.971429 0 0 0 1024 757.028571v-746.715428A138.971429 138.971429 0 0 0 885.028571-128zM138.971429 805.376a47.981714 47.981714 0 0 1-48.274286-48.054857v-746.715429a47.908571 47.908571 0 0 1 48.274286-47.981714h746.057142a47.908571 47.908571 0 0 1 48.274286 47.981714V757.028571a47.981714 47.981714 0 0 1-48.274286 48.054858H138.971429zM73.142857 603.428571h877.714286v-73.142857H73.142857V603.428571z m373.76-451.364571l304.274286 304.128a47.908571 47.908571 0 1 0 68.022857-67.584l-337.92-337.993143a48.347429 48.347429 0 0 0-68.022857 0L210.651429 253.44a47.616 47.616 0 0 0 21.211428 80.457143 46.738286 46.738286 0 0 0 46.08-13.019429z m13.897143 29.696"  horiz-adv-x="1024" />

    
    <glyph glyph-name="yirenyidang-zuocedaohang-Tabzhuantidangan" unicode="&#59061;" d="M864.14007 753.778647h-167.252311a191.657495 191.657495 0 0 1-370.344403 0H159.291044a43.064626 43.064626 0 0 1-43.804176-42.666406v-796.439577a43.064626 43.064626 0 0 1 43.804176-42.666406h704.849026a43.064626 43.064626 0 0 1 43.804177 42.666406v796.439577a43.064626 43.064626 0 0 1-43.804177 42.666406z m-352.14007 56.888541a102.911371 102.911371 0 0 0 92.159437-56.888541H419.271678a103.082037 103.082037 0 0 0 92.728322 56.888541z m308.335894-853.328118H203.664106V668.445835h616.671788v-711.106765zM512 502.274406l63.146281-124.642794 142.221353-20.024766-102.96826-97.051852 24.462073-136.987607-126.861447 64.682271-127.430332-64.682271 24.462072 136.987607-102.968259 97.051852 142.221353 20.024766z"  horiz-adv-x="1024" />

    
    <glyph glyph-name="yirenyidang-zhuantishenhe-chexiao" unicode="&#59062;" d="M1013.76 896H10.24A10.176 10.176 0 0 1 0 885.76v-1003.52a10.176 10.176 0 0 1 10.24-10.24h1003.52a10.176 10.176 0 0 1 10.24 10.24V424.96a10.176 10.176 0 0 1-10.24 10.24h-353.28V635.648a10.24 10.24 0 0 1-15.36 8.896L220.16 399.296a10.624 10.624 0 0 1 0-17.792l424.96-245.248a10.24 10.24 0 0 1 15.36 8.896V332.8h261.12v-358.4H102.4V793.6h819.2v-92.16a10.176 10.176 0 0 1 10.24-10.24h81.92a10.176 10.176 0 0 1 10.24 10.24V885.76a10.176 10.176 0 0 1-10.24 10.24z"  horiz-adv-x="1024" />

    


  </font>
</defs>
</svg>
